<svg width="16" height="17" viewBox="0 0 16 17" fill="none" xmlns="http://www.w3.org/2000/svg">
<g clip-path="url(#clip0_418_128)">
<path d="M2.90937 10.6812V4.8625H1.45312C0.653125 4.8625 0 5.51562 0 6.31875V15.0469C0 15.8469 0.653125 16.5 1.45312 16.5H10.1812C10.9844 16.5 11.6344 15.8469 11.6344 15.0469V13.5938H5.81875C4.2125 13.5906 2.90937 12.2875 2.90937 10.6812ZM14.5469 0.5H5.81875C5.01562 0.5 4.36562 1.15312 4.36562 1.95312V10.6812C4.36562 11.4844 5.01875 12.1344 5.81875 12.1344H14.5469C15.35 12.1344 16 11.4812 16 10.6812V1.95312C16 1.15312 15.3469 0.5 14.5469 0.5ZM13.8188 7.04688H10.9094V9.95625H9.45625V7.04688H6.54688V5.59375H9.45625V2.68125H10.9094V5.59062H13.8188V7.04688Z" fill="#0E9EEF"/>
</g>
<defs>
<clipPath id="clip0_418_128">
<rect width="16" height="16" fill="white" transform="translate(0 0.5)"/>
</clipPath>
</defs>
</svg>
