<svg id="Layer_1" data-name="Layer 1" xmlns="http://www.w3.org/2000/svg" xmlns:xlink="http://www.w3.org/1999/xlink" viewBox="0 0 16 16"><defs><style>.cls-1{fill:none;}.cls-2{clip-path:url(#clip-path);}.cls-3{fill:#fff;}</style><clipPath id="clip-path" transform="translate(-34.28 -3.21)"><rect class="cls-1" x="34.28" y="3.21" width="16" height="16"/></clipPath></defs><g class="cls-2"><path class="cls-3" d="M42.28,19.21a7.75,7.75,0,0,1-2.12-.28,8.11,8.11,0,0,1-1.92-.8,8,8,0,0,1-1.62-1.25,8.7,8.7,0,0,1-1.25-1.63,7.65,7.65,0,0,1-.8-1.91,8.76,8.76,0,0,1-.29-2.13,7.86,7.86,0,0,1,.28-2.12,8.14,8.14,0,0,1,.81-1.92,7.81,7.81,0,0,1,1.25-1.61,7.61,7.61,0,0,1,1.62-1.25,8,8,0,0,1,4-1.1,8.41,8.41,0,0,1,2.13.28,7.9,7.9,0,0,1,1.91.81,8.15,8.15,0,0,1,1.62,1.25,8.24,8.24,0,0,1,1.25,1.62A8.11,8.11,0,0,1,50,9.09a8.06,8.06,0,0,1,0,4.25,8.07,8.07,0,0,1-.81,1.91,7.3,7.3,0,0,1-1.25,1.62,8,8,0,0,1-1.62,1.25,7.81,7.81,0,0,1-1.91.8A8.3,8.3,0,0,1,42.28,19.21Zm0-15a7.06,7.06,0,0,0-1.85.25,7.15,7.15,0,0,0-3.1,1.81,7.39,7.39,0,0,0-1.09,1.41,7.12,7.12,0,0,0-.71,1.67,6.89,6.89,0,0,0-.25,1.86,6.66,6.66,0,0,0,.25,1.85,7.35,7.35,0,0,0,.7,1.68,7.2,7.2,0,0,0,1.1,1.42,7.36,7.36,0,0,0,1.42,1.09,7.12,7.12,0,0,0,1.67.71,6.14,6.14,0,0,0,1.86.25A6.66,6.66,0,0,0,44.13,18a7,7,0,0,0,3.1-1.8,7.15,7.15,0,0,0,1.09-1.42A6.94,6.94,0,0,0,49,13.07a6.42,6.42,0,0,0,.25-1.86A6.72,6.72,0,0,0,49,9.36a7.46,7.46,0,0,0-.7-1.67,6.84,6.84,0,0,0-1.1-1.42,7.83,7.83,0,0,0-1.42-1.1,7.56,7.56,0,0,0-1.67-.71A6.79,6.79,0,0,0,42.28,4.21Zm0,7v-5h-1v6h4v-1Z" transform="translate(-34.28 -3.21)"/></g></svg>