<svg id="Layer_1" data-name="Layer 1" xmlns="http://www.w3.org/2000/svg" viewBox="0 0 12 12"><defs><style>.cls-1{fill:#fff;}</style></defs><path class="cls-1" d="M8,10.83A2.29,2.29,0,0,0,10.33,8.5,2.29,2.29,0,0,0,8,6.17,2.29,2.29,0,0,0,5.67,8.5,2.29,2.29,0,0,0,8,10.83ZM8,9.17A.66.66,0,0,1,7.53,8,.62.62,0,0,1,8,7.83a.66.66,0,0,1,.48.2.65.65,0,0,1,.19.47.66.66,0,0,1-.2.48A.65.65,0,0,1,8,9.17ZM8,14.5A5.93,5.93,0,0,1,5.66,14a6.11,6.11,0,0,1-1.9-1.28,6.19,6.19,0,0,1-1.29-1.91,6.06,6.06,0,0,1,0-4.68,6.11,6.11,0,0,1,1.28-1.9A6.19,6.19,0,0,1,5.66,3a6.06,6.06,0,0,1,4.68,0,6.11,6.11,0,0,1,1.9,1.28,6.19,6.19,0,0,1,1.29,1.91,6.06,6.06,0,0,1,0,4.68,6.11,6.11,0,0,1-1.28,1.9A6.19,6.19,0,0,1,10.34,14,5.93,5.93,0,0,1,8,14.5Zm0-.67a5.11,5.11,0,0,0,3.78-1.55A5.11,5.11,0,0,0,13.33,8.5a5.11,5.11,0,0,0-1.55-3.78A5.11,5.11,0,0,0,8,3.17,5.11,5.11,0,0,0,4.22,4.72,5.11,5.11,0,0,0,2.67,8.5a5.11,5.11,0,0,0,1.55,3.78A5.11,5.11,0,0,0,8,13.83Z" transform="translate(-2 -2.5)"/></svg>