<svg id="Layer_1" data-name="Layer 1" xmlns="http://www.w3.org/2000/svg" viewBox="0 0 12 12"><defs><style>.cls-1{fill:#fff;}</style></defs><path class="cls-1" d="M4.77,11.23,9,9l2.26-4.2L7,7ZM8,8.67a.66.66,0,0,1-.47-1.14A.62.62,0,0,1,8,7.33a.66.66,0,0,1,.48.2A.65.65,0,0,1,8.67,8a.66.66,0,0,1-.2.48A.65.65,0,0,1,8,8.67ZM8,14a5.93,5.93,0,0,1-2.34-.47,6.11,6.11,0,0,1-1.9-1.28,6.19,6.19,0,0,1-1.29-1.91,6.06,6.06,0,0,1,0-4.68,6.11,6.11,0,0,1,1.28-1.9A6.19,6.19,0,0,1,5.66,2.47a6.06,6.06,0,0,1,4.68,0,6.11,6.11,0,0,1,1.9,1.28,6.19,6.19,0,0,1,1.29,1.91,6.06,6.06,0,0,1,0,4.68,6.11,6.11,0,0,1-1.28,1.9,6.19,6.19,0,0,1-1.91,1.29A5.93,5.93,0,0,1,8,14Zm0-.67a5.11,5.11,0,0,0,3.78-1.55A5.11,5.11,0,0,0,13.33,8a5.11,5.11,0,0,0-1.55-3.78A5.11,5.11,0,0,0,8,2.67,5.11,5.11,0,0,0,4.22,4.22,5.11,5.11,0,0,0,2.67,8a5.11,5.11,0,0,0,1.55,3.78A5.11,5.11,0,0,0,8,13.33Z" transform="translate(-2 -2)"/></svg>