<svg width="26" height="26" viewBox="0 0 26 26" fill="none" xmlns="http://www.w3.org/2000/svg">
<path d="M0.679672 23.0308V2.72311C0.679672 2.23348 0.874177 1.7639 1.2204 1.41768C1.56662 1.07146 2.0362 0.876953 2.52583 0.876953H22.8335C23.3231 0.876953 23.7927 1.07146 24.1389 1.41768C24.4852 1.7639 24.6797 2.23348 24.6797 2.72311V23.0308C24.6797 23.5204 24.4852 23.99 24.1389 24.3362C23.7927 24.6824 23.3231 24.877 22.8335 24.877H17.2951V16.1262H18.6058C18.9045 16.1262 19.1909 16.0075 19.4021 15.7963C19.6133 15.5851 19.732 15.2987 19.732 15V13.5785C19.732 13.2798 19.6133 12.9934 19.4021 12.7822C19.1909 12.571 18.9045 12.4523 18.6058 12.4523H17.3689V10.717C17.3689 9.16618 18.0704 9.16618 18.772 9.16618H19.6766C19.8252 9.1723 19.9733 9.14571 20.1105 9.08829C20.2476 9.03087 20.3705 8.94402 20.4704 8.83388C20.5777 8.73174 20.6627 8.60845 20.7199 8.47181C20.7771 8.33516 20.8053 8.18814 20.8027 8.04003V6.67388C20.8077 6.52354 20.7829 6.37371 20.7299 6.23295C20.6769 6.09219 20.5967 5.96326 20.4938 5.85353C20.3909 5.7438 20.2674 5.65542 20.1304 5.59344C19.9933 5.53146 19.8454 5.49711 19.6951 5.49234H17.572C16.9525 5.46905 16.3353 5.58051 15.7631 5.81903C15.1909 6.05754 14.6773 6.41743 14.2578 6.87382C13.8383 7.33021 13.5228 7.87224 13.3332 8.46245C13.1436 9.05267 13.0844 9.677 13.1597 10.2923V12.4523H11.9781C11.8287 12.4499 11.6803 12.4772 11.5415 12.5327C11.4027 12.5882 11.2764 12.6708 11.1699 12.7756C11.0633 12.8804 10.9787 13.0054 10.921 13.1432C10.8632 13.2811 10.8335 13.429 10.8335 13.5785V15C10.8335 15.1495 10.8632 15.2974 10.921 15.4353C10.9787 15.5731 11.0633 15.6981 11.1699 15.8029C11.2764 15.9078 11.4027 15.9903 11.5415 16.0458C11.6803 16.1013 11.8287 16.1286 11.9781 16.1262H13.1597V24.877H2.52583C2.0362 24.877 1.56662 24.6824 1.2204 24.3362C0.874177 23.99 0.679672 23.5204 0.679672 23.0308Z" stroke="white" stroke-linecap="round" stroke-linejoin="round"/>
</svg>
