<svg id="Layer_1" data-name="Layer 1" xmlns="http://www.w3.org/2000/svg" viewBox="0 0 13.75 11.75"><defs><style>.cls-1{fill:#fff;}</style></defs><path class="cls-1" d="M11.13,2.63A3.7,3.7,0,0,0,8,4.21,3.7,3.7,0,0,0,4.88,2.63,3.72,3.72,0,0,0,1.13,6.38C1.13,8.2,2.26,10.1,4.51,12a20.45,20.45,0,0,0,3.31,2.31.35.35,0,0,0,.36,0A20.45,20.45,0,0,0,11.49,12c2.25-1.92,3.39-3.82,3.39-5.64a3.83,3.83,0,0,0-1.1-2.66A3.77,3.77,0,0,0,11.13,2.63ZM8,13.57C7,13,1.88,9.86,1.88,6.38a3,3,0,0,1,3-3A2.89,2.89,0,0,1,7.65,5.14a.38.38,0,0,0,.7,0,2.9,2.9,0,0,1,2.78-1.76,3,3,0,0,1,2.12.87,3.08,3.08,0,0,1,.88,2.13C14.13,9.86,9,13,8,13.57Z" transform="translate(-1.13 -2.63)"/></svg>