<svg xmlns="http://www.w3.org/2000/svg" viewBox="0 0 25.5 25.5"><defs><style>.cls-1,.cls-2{fill:none;stroke:#fff;stroke-width:1.5px;}.cls-2{stroke-linecap:round;}</style></defs><g id="Layer_2" data-name="Layer 2"><g id="Layer_1-2" data-name="Layer 1"><path class="cls-1" d="M.75,13c0-2.74,0-4.11.62-5.24s1.76-1.85,4-3.26L7.77,3c2.45-1.5,3.65-2.25,5-2.25S15.28,1.5,17.69,3l2.4,1.49c2.28,1.41,3.41,2.12,4,3.26s.66,2.51.66,5.25v1.83c0,4.68,0,7-1.41,8.48s-3.66,1.45-8.19,1.45h-4.8c-4.53,0-6.79,0-8.19-1.45S.75,19.5.75,14.82Z"/><path class="cls-2" d="M12.75,16.35V20"/></g></g></svg>