<svg width="27" height="27" viewBox="0 0 27 27" fill="none" xmlns="http://www.w3.org/2000/svg">
<path d="M19.039 1.87695H7.03902C3.72531 1.87695 1.03902 4.56324 1.03902 7.87695V19.877C1.03902 23.1907 3.72531 25.877 7.03902 25.877H19.039C22.3527 25.877 25.039 23.1907 25.039 19.877V7.87695C25.039 4.56324 22.3527 1.87695 19.039 1.87695Z" stroke="white" stroke-width="2" stroke-linecap="round" stroke-linejoin="round"/>
<path d="M19.639 7.27686H19.651M17.839 13.1209C17.9871 14.1196 17.8165 15.1395 17.3515 16.0357C16.8865 16.9318 16.1508 17.6586 15.249 18.1125C14.3471 18.5664 13.3251 18.7244 12.3284 18.564C11.3316 18.4036 10.4107 17.933 9.69682 17.219C8.98291 16.5051 8.51229 15.5843 8.35189 14.5875C8.19149 13.5907 8.34949 12.5687 8.8034 11.6669C9.25731 10.7651 9.98403 10.0293 10.8802 9.56435C11.7764 9.09935 12.7963 8.92876 13.795 9.07686C14.8137 9.22792 15.7568 9.70261 16.485 10.4308C17.2133 11.159 17.6879 12.1021 17.839 13.1209Z" stroke="white" stroke-width="2" stroke-linecap="round" stroke-linejoin="round"/>
</svg>
