<svg width="25" height="18" viewBox="0 0 25 18" fill="none" xmlns="http://www.w3.org/2000/svg">
<path d="M2.25 0H22.75C23.716 0 24.5 0.784 24.5 1.75V15.75C24.5 16.2141 24.3156 16.6592 23.9874 16.9874C23.6592 17.3156 23.2141 17.5 22.75 17.5H2.25C1.78587 17.5 1.34075 17.3156 1.01256 16.9874C0.684374 16.6592 0.5 16.2141 0.5 15.75V1.75C0.5 0.784 1.284 0 2.25 0ZM2 4.412V15.75C2 15.888 2.112 16 2.25 16H22.75C22.8163 16 22.8799 15.9737 22.9268 15.9268C22.9737 15.8799 23 15.8163 23 15.75V4.412L13.48 10.845C12.888 11.245 12.112 11.245 11.52 10.845L2 4.412ZM2 1.75V2.602L12.36 9.602C12.4013 9.62994 12.4501 9.64488 12.5 9.64488C12.5499 9.64488 12.5987 9.62994 12.64 9.602L23 2.602V1.75C23 1.6837 22.9737 1.62011 22.9268 1.57322C22.8799 1.52634 22.8163 1.5 22.75 1.5H2.25C2.1837 1.5 2.12011 1.52634 2.07322 1.57322C2.02634 1.62011 2 1.6837 2 1.75Z" fill="white"/>
</svg>
