<svg width="16" height="22" viewBox="0 0 16 22" fill="none" xmlns="http://www.w3.org/2000/svg">
<path d="M2.53858 1.26703L3.96143 0.838458C4.60914 0.64305 5.30582 0.690029 5.92142 0.970624C6.53703 1.25122 7.02949 1.74625 7.30686 2.36332L8.19229 4.33303C8.43088 4.86365 8.49734 5.45566 8.38236 6.02598C8.26737 6.5963 7.9767 7.11631 7.55115 7.51303L6.00401 8.9556C5.98549 8.97399 5.96988 8.99509 5.95772 9.01817C5.79572 9.34903 6.04172 10.2327 6.81229 11.5682C7.68143 13.0733 8.35258 13.6682 8.66372 13.5765L10.6943 12.955C11.2504 12.7852 11.8457 12.7937 12.3967 12.9792C12.9478 13.1647 13.427 13.518 13.7671 13.9896L15.0254 15.7322C15.4205 16.2793 15.6035 16.9513 15.5404 17.6232C15.4773 18.2951 15.1725 18.9212 14.6826 19.3853L13.6 20.4096C13.2235 20.7662 12.7664 21.0264 12.2676 21.1681C11.7688 21.3097 11.2431 21.3286 10.7354 21.223C7.72086 20.5956 5.02001 18.1682 2.60972 13.9939C0.198578 9.81703 -0.553137 6.25989 0.415434 3.33446C0.577568 2.84469 0.855211 2.40115 1.2249 2.0413C1.59459 1.68146 2.04461 1.41589 2.53858 1.26703ZM2.91143 2.49789C2.61504 2.58716 2.34449 2.74647 2.12265 2.96234C1.90081 3.17822 1.73418 3.44432 1.63686 3.73817C0.802006 6.25903 1.47829 9.46132 3.72401 13.351C5.96801 17.2382 8.40058 19.4239 10.9986 19.9639C11.3032 20.0271 11.6186 20.0157 11.9179 19.9306C12.2171 19.8455 12.4913 19.6893 12.7171 19.4753L13.7989 18.4519C14.0628 18.2021 14.227 17.8649 14.2611 17.5031C14.2951 17.1413 14.1967 16.7794 13.984 16.4847L12.7257 14.7413C12.5426 14.4874 12.2846 14.2972 11.988 14.1973C11.6913 14.0974 11.3708 14.0928 11.0714 14.1842L9.03572 14.8073C7.90943 15.1425 6.85001 14.2039 5.69972 12.2102C4.72515 10.5233 4.38743 9.30446 4.80401 8.45332C4.88515 8.2876 4.99315 8.1416 5.12801 8.01532L6.67515 6.57274C6.90438 6.35913 7.06097 6.07909 7.12292 5.77194C7.18487 5.46479 7.14909 5.14595 7.02058 4.86017L6.13429 2.89132C5.98494 2.55897 5.71972 2.29234 5.38817 2.14123C5.05661 1.99013 4.68139 1.96487 4.33258 2.07017L2.91143 2.49789Z" fill="white"/>
</svg>
