<svg id="Layer_1" data-name="Layer 1" xmlns="http://www.w3.org/2000/svg" viewBox="0 0 13.5 10.51"><defs><style>.cls-1{fill:#fff;}</style></defs><path class="cls-1" d="M2,4.5a.47.47,0,0,1,.15-.35A.47.47,0,0,1,2.5,4h11a.5.5,0,0,1,.35.85A.47.47,0,0,1,13.5,5H2.5a.47.47,0,0,1-.35-.15A.47.47,0,0,1,2,4.5ZM2.5,9H10a.5.5,0,0,0,0-1H2.5a.47.47,0,0,0-.35.15.48.48,0,0,0,0,.7A.47.47,0,0,0,2.5,9ZM7,12H2.5a.47.47,0,0,0-.35.15.48.48,0,0,0,0,.7A.47.47,0,0,0,2.5,13H7a.5.5,0,0,0,0-1Zm8.48-3.61a.51.51,0,0,1-.09.18.57.57,0,0,1-.15.12.7.7,0,0,1-.19.06.68.68,0,0,1-.2,0L13,8.17V12.5a2,2,0,0,1-.41,1.22,2.07,2.07,0,0,1-1.07.72,2,2,0,0,1-1.29-.09,1.94,1.94,0,0,1-1-.84,2,2,0,0,1,.32-2.42,1.91,1.91,0,0,1,1.16-.57,2,2,0,0,1,1.26.25V7.5a.54.54,0,0,1,.05-.22.65.65,0,0,1,.15-.18A.43.43,0,0,1,12.41,7a.44.44,0,0,1,.23,0l2.5.75a.52.52,0,0,1,.3.24A.51.51,0,0,1,15.48,8.39ZM12,12.5a1,1,0,0,0-.17-.56.94.94,0,0,0-.45-.36,1,1,0,0,0-.58-.06,1,1,0,0,0-.78.78,1,1,0,0,0,.06.58.94.94,0,0,0,.36.45A1,1,0,0,0,12,12.5Z" transform="translate(-2 -4)"/></svg>