<svg id="Layer_1" data-name="Layer 1" xmlns="http://www.w3.org/2000/svg" xmlns:xlink="http://www.w3.org/1999/xlink" viewBox="0 0 15.33 15.33"><defs><style>.cls-1,.cls-3{fill:none;}.cls-2{clip-path:url(#clip-path);}.cls-3{stroke:#fff;stroke-linecap:round;stroke-linejoin:round;}</style><clipPath id="clip-path" transform="translate(-17.19 -0.33)"><rect class="cls-1" x="16.85" width="16" height="16"/></clipPath></defs><g class="cls-2"><path class="cls-3" d="M22.26,10.59a3.64,3.64,0,0,0,1.19.79,3.57,3.57,0,0,0,1.4.28A3.66,3.66,0,1,0,21.19,8v.71" transform="translate(-17.19 -0.33)"/><path class="cls-3" d="M20.54,8.06l.65.65.65-.65m3-2.58V8L26,9.15" transform="translate(-17.19 -0.33)"/><path class="cls-3" d="M24.85,15.17A7.17,7.17,0,1,0,17.69,8,7.17,7.17,0,0,0,24.85,15.17Z" transform="translate(-17.19 -0.33)"/></g></svg>