<svg width="16" height="16" viewBox="0 0 16 16" fill="none" xmlns="http://www.w3.org/2000/svg">
<g clip-path="url(#clip0_418_138)">
<path d="M13.7586 9.424L13.6926 8.76067L13.6706 8.76267L13.6493 8.76667L13.7586 9.424ZM13.7586 9.424L13.8253 10.0873L13.8473 10.0853L13.8686 10.082L13.7586 9.424ZM11.0653 13.0787L11.4873 12.5627L11.482 12.5587L11.0653 13.0787ZM11.0653 13.0787L10.6433 13.5947L10.6486 13.5993L11.0653 13.0787ZM4.93464 13.0787L4.51264 12.5633L4.50197 12.572L4.49197 12.5807L4.93464 13.0787ZM4.93464 13.0787L5.35664 13.5953L5.36731 13.5867L5.37731 13.5773L4.93464 13.0787ZM2.24064 6.576V5.90933H2.20731L2.17464 5.91267L2.24064 6.576ZM2.24064 6.576V7.24267H2.27397L2.30731 7.23933L2.24064 6.576ZM10.0873 2.174C10.0762 2.04578 10.0604 1.91795 10.0413 1.79067C10.0205 1.65062 9.97777 1.51473 9.91464 1.388L8.72997 2C8.71464 1.97 8.71797 1.95933 8.72664 2.012C8.73664 2.07133 8.74531 2.154 8.76064 2.30733L10.0873 2.174ZM10.1506 2.80733C10.1926 2.862 10.1786 2.88667 10.1553 2.75667C10.1333 2.63267 10.116 2.45867 10.0873 2.174L8.75997 2.30667C8.78664 2.56933 8.80931 2.80533 8.84331 2.99333C8.87597 3.17333 8.93331 3.41 9.08997 3.61533L10.1506 2.80733ZM10.1506 2.80733L9.08997 3.61533C9.23265 3.80256 9.42235 3.94869 9.63979 4.03885C9.85723 4.12901 10.0947 4.16 10.328 4.12867L10.1506 2.80733ZM10.6426 2.404C10.4932 2.53027 10.3396 2.65145 10.182 2.76733C10.0733 2.84267 10.082 2.816 10.1506 2.80733L10.328 4.12867C10.584 4.094 10.792 3.96733 10.9426 3.862C11.0993 3.754 11.2826 3.60333 11.4866 3.436L10.6426 2.404ZM11.32 1.97067C11.1859 2.01552 11.0596 2.08121 10.946 2.16533C10.8526 2.232 10.748 2.318 10.6426 2.404L11.4866 3.436C11.606 3.33867 11.6706 3.286 11.72 3.25133C11.7633 3.22 11.7573 3.23067 11.726 3.24067L11.32 1.97067ZM12.256 2.01733C11.9599 1.88903 11.6273 1.87245 11.32 1.97067L11.726 3.24067L12.256 2.01733ZM12.8866 2.516C12.7969 2.42366 12.7042 2.33428 12.6086 2.248C12.5037 2.15302 12.3845 2.07518 12.2553 2.01733L11.726 3.24067C11.6953 3.22733 11.6906 3.21667 11.7306 3.252C11.776 3.292 11.8353 3.35 11.944 3.45867L12.8866 2.516ZM13.4826 3.112L12.8866 2.516L11.944 3.45867L12.54 4.05467L13.4826 3.112ZM13.9813 3.74267C13.9235 3.6135 13.8456 3.49426 13.7506 3.38933C13.6642 3.29416 13.5748 3.20167 13.4826 3.112L12.54 4.05533C12.6486 4.164 12.7066 4.22333 12.7466 4.26867C12.782 4.30867 12.7713 4.304 12.758 4.27333L13.9813 3.74267ZM14.028 4.67867C14.1262 4.3713 14.1096 4.03874 13.9813 3.74267L12.758 4.27333L14.028 4.67867ZM13.5946 5.356C13.6776 5.25762 13.7572 5.15645 13.8333 5.05267C13.904 4.954 13.98 4.83133 14.028 4.67867L12.758 4.27333C12.768 4.242 12.778 4.23533 12.7473 4.27933C12.7126 4.328 12.6606 4.39267 12.5626 4.512L13.5946 5.356ZM13.1913 5.84867C13.1826 5.91733 13.156 5.92533 13.2313 5.81667C13.3026 5.71333 13.4133 5.57733 13.5946 5.356L12.5626 4.512C12.396 4.716 12.2446 4.89933 12.136 5.056C12.0313 5.20667 11.9046 5.41467 11.87 5.67067L13.1913 5.84867ZM13.1913 5.84867L11.87 5.67067C11.8386 5.90397 11.8696 6.14141 11.9598 6.35885C12.05 6.57629 12.1961 6.76599 12.3833 6.90867L13.1913 5.84867ZM13.8246 5.912C13.6297 5.89568 13.4354 5.87278 13.242 5.84333C13.112 5.82 13.1366 5.80667 13.1913 5.84867L12.3833 6.90867C12.5886 7.06533 12.8246 7.12267 13.006 7.15533C13.1933 7.18867 13.4293 7.212 13.692 7.23867L13.8246 5.912ZM14.6106 6.084C14.4839 6.02087 14.348 5.97813 14.208 5.95733C14.0807 5.93827 13.9529 5.92315 13.8246 5.912L13.692 7.23867C13.7907 7.24736 13.8892 7.25848 13.9873 7.272C14.0406 7.28133 14.0293 7.28467 13.9993 7.26933L14.6106 6.084ZM15.2393 6.77933C15.1208 6.4791 14.8974 6.23205 14.6106 6.084L14 7.27067L15.2393 6.77933ZM15.3326 7.578C15.3326 7.442 15.3326 7.30667 15.3253 7.192C15.3184 7.05052 15.2891 6.91102 15.2386 6.77867L14 7.27067C13.988 7.23933 13.992 7.22867 13.996 7.282C14 7.342 14 7.42533 14 7.57933L15.3326 7.578ZM15.3326 8.42067V7.578H13.9993V8.42067H15.3326ZM15.2393 9.21933C15.298 9.07067 15.3173 8.928 15.3253 8.806C15.3326 8.692 15.3326 8.55667 15.3326 8.42067H13.9993C13.9993 8.57467 13.9993 8.658 13.9953 8.718C13.9913 8.77133 13.9873 8.76067 13.9993 8.72933L15.2393 9.21933ZM14.6106 9.91467C14.8974 9.76662 15.1208 9.51956 15.2393 9.21933L14 8.73L14.6106 9.91467ZM13.8246 10.0867C13.9606 10.0733 14.0946 10.06 14.208 10.0413C14.328 10.0213 14.468 9.988 14.6106 9.91467L14 8.73C14.0293 8.71467 14.0406 8.718 13.988 8.72667C13.8899 8.74086 13.7914 8.7522 13.6926 8.76067L13.8246 10.0867ZM13.192 10.15C13.1366 10.192 13.112 10.1787 13.242 10.1553C13.366 10.1333 13.54 10.1153 13.8246 10.0867L13.692 8.76C13.43 8.78667 13.1933 8.80933 13.006 8.84333C12.8253 8.876 12.5886 8.93333 12.3833 9.09L13.192 10.15ZM13.192 10.15L12.3833 9.09C12.1961 9.23267 12.05 9.42237 11.9598 9.63982C11.8696 9.85726 11.8386 10.0947 11.87 10.328L13.192 10.15ZM13.5946 10.642C13.4684 10.4928 13.3472 10.3394 13.2313 10.182C13.156 10.0733 13.1833 10.0813 13.192 10.15L11.87 10.328C11.9046 10.584 12.0313 10.792 12.1366 10.9427C12.2453 11.0993 12.396 11.2827 12.5626 11.4867L13.5946 10.642ZM14.028 11.3193C13.9831 11.1855 13.9174 11.0595 13.8333 10.946C13.7666 10.852 13.6806 10.748 13.5946 10.642L12.5626 11.4867C12.66 11.606 12.7126 11.67 12.7473 11.7193C12.7786 11.7627 12.7686 11.7573 12.758 11.726L14.028 11.3193ZM13.9813 12.256C14.1098 11.9597 14.1264 11.6269 14.028 11.3193L12.758 11.726L13.9813 12.256ZM13.4826 12.8867C13.5793 12.79 13.6746 12.6953 13.7506 12.6087C13.8306 12.5167 13.9173 12.4027 13.9813 12.2553L12.758 11.7253C12.7713 11.6947 12.782 11.6907 12.7466 11.7307C12.7066 11.776 12.6486 11.8347 12.54 11.944L13.4826 12.8867ZM12.8866 13.482L13.4826 12.8867L12.54 11.944L11.944 12.5393L12.8866 13.482ZM12.256 13.9813C12.3852 13.9233 12.5044 13.8452 12.6093 13.75C12.6953 13.6747 12.7906 13.5787 12.8866 13.482L11.944 12.5393C11.8748 12.6102 11.8037 12.6791 11.7306 12.746C11.6906 12.782 11.6953 12.7713 11.726 12.758L12.256 13.9813ZM11.32 14.028C11.6273 14.1262 11.9599 14.1096 12.256 13.9813L11.726 12.758L11.32 14.028ZM10.6426 13.5947C10.748 13.6807 10.852 13.7667 10.946 13.8333C11.0446 13.9033 11.1673 13.9793 11.32 14.028L11.726 12.758C11.7573 12.768 11.7633 12.778 11.7193 12.7473C11.64 12.688 11.5624 12.6264 11.4866 12.5627L10.6426 13.5947ZM10.1506 13.192C10.082 13.182 10.0733 13.1553 10.182 13.2307C10.2853 13.3027 10.4206 13.4127 10.642 13.594L11.4866 12.5627C11.2826 12.3953 11.0993 12.2447 10.9426 12.136C10.792 12.0307 10.584 11.9047 10.328 11.87L10.1506 13.192ZM10.1506 13.192L10.328 11.87C10.0947 11.8387 9.85723 11.8697 9.63979 11.9598C9.42235 12.05 9.23265 12.1961 9.08997 12.3833L10.1506 13.192ZM10.0866 13.8247C10.1153 13.54 10.1333 13.3653 10.1553 13.242C10.1786 13.112 10.192 13.136 10.15 13.1913L9.08997 12.3827C8.93331 12.588 8.87597 12.8247 8.84331 13.0053C8.80997 13.1933 8.78731 13.4293 8.76064 13.692L10.0866 13.8247ZM9.91397 14.6107C9.98731 14.468 10.0206 14.328 10.0406 14.208C10.0606 14.0947 10.0726 13.9607 10.0866 13.8247L8.76064 13.692C8.75175 13.791 8.74019 13.889 8.72597 13.9873C8.71731 14.0407 8.71397 14.0293 8.72931 13.9993L9.91397 14.6107ZM9.21997 15.2393C9.5197 15.1206 9.76625 14.8972 9.91397 14.6107L8.72997 14L9.21997 15.2393ZM8.41997 15.3327C8.55664 15.3327 8.69197 15.3327 8.80664 15.3253C8.92797 15.3173 9.07064 15.2993 9.21997 15.2393L8.72997 14C8.76131 13.988 8.77197 13.992 8.71864 13.996C8.61959 14.0002 8.52044 14.0015 8.42131 14L8.41997 15.3327ZM7.57797 15.3327H8.41997L8.42064 13.9993H7.57797V15.3327ZM6.77931 15.2393C6.92797 15.298 7.07064 15.3173 7.19264 15.3253C7.30664 15.3327 7.44197 15.3327 7.57797 15.3327V13.9993C7.42397 13.9993 7.34064 13.9993 7.28064 13.9953C7.22731 13.9913 7.23797 13.9873 7.26931 13.9993L6.77931 15.2393ZM6.08397 14.6107C6.23202 14.8975 6.47908 15.1208 6.77931 15.2393L7.26931 13.9993L6.08397 14.6107ZM5.91197 13.8247C5.92531 13.9607 5.93864 14.0947 5.95731 14.208C5.97731 14.328 6.01064 14.468 6.08397 14.6107L7.27064 14C7.28597 14.0293 7.28264 14.0407 7.27397 13.988C7.25978 13.8899 7.24844 13.7914 7.23997 13.6927L5.91197 13.8247ZM5.84864 13.1913C5.80664 13.1367 5.81997 13.1113 5.84331 13.242C5.86531 13.3653 5.88331 13.54 5.91197 13.8247L7.23864 13.692C7.21197 13.4293 7.18931 13.1933 7.15531 13.0053C7.12264 12.8253 7.06531 12.5887 6.90864 12.3833L5.84864 13.1913ZM5.84864 13.1913L6.90864 12.3833C6.76597 12.1961 6.57627 12.05 6.35882 11.9598C6.14138 11.8697 5.90394 11.8387 5.67064 11.87L5.84864 13.1913ZM5.35597 13.5947C5.57797 13.4133 5.71331 13.3027 5.81664 13.2313C5.92531 13.156 5.91731 13.1827 5.84864 13.1913L5.67064 11.87C5.41464 11.9047 5.20664 12.0313 5.05597 12.1367C4.89931 12.2447 4.71597 12.3953 4.51197 12.5627L5.35597 13.5947ZM4.67864 14.028C4.81275 13.9832 4.93897 13.9175 5.05264 13.8333C5.14597 13.7667 5.25064 13.6807 5.35597 13.5947L4.51264 12.5633C4.43665 12.6271 4.3595 12.6887 4.27997 12.748C4.23664 12.7793 4.24264 12.7693 4.27397 12.7587L4.67864 14.028ZM3.74264 13.9813C4.03871 14.1096 4.37127 14.1262 4.67864 14.028L4.27264 12.758L3.74264 13.9813ZM3.11131 13.4827C3.20797 13.5793 3.30331 13.6747 3.38997 13.7507C3.48131 13.8307 3.59531 13.918 3.74331 13.982L4.27264 12.758C4.30331 12.7713 4.30797 12.782 4.26797 12.7467C4.19488 12.6799 4.12374 12.6109 4.05464 12.54L3.11131 13.4827ZM2.51597 12.8867L3.11197 13.4827L4.05464 12.54L3.45864 11.944L2.51597 12.8867ZM2.01731 12.256C2.08064 12.4027 2.16797 12.5173 2.24797 12.6093C2.32397 12.6953 2.41931 12.7907 2.51597 12.8867L3.45864 11.944C3.38772 11.8749 3.3188 11.8037 3.25197 11.7307C3.21664 11.6907 3.22731 11.6953 3.24064 11.726L2.01731 12.256ZM1.97064 11.32C1.87242 11.6274 1.889 11.9599 2.01731 12.256L3.24064 11.726L1.97064 11.32ZM2.40397 10.6427C2.32101 10.7411 2.24141 10.8422 2.16531 10.946C2.08118 11.0597 2.01549 11.1859 1.97064 11.32L3.24064 11.726C3.22997 11.7573 3.22064 11.7633 3.25131 11.7193C3.28597 11.6707 3.33797 11.606 3.43597 11.4867L2.40397 10.6427ZM2.80664 10.15C2.81597 10.0813 2.84264 10.0733 2.76731 10.182C2.69597 10.2853 2.58531 10.4213 2.40397 10.6427L3.43597 11.4867C3.60264 11.2827 3.75397 11.0993 3.86264 10.9427C3.96731 10.792 4.09397 10.584 4.12864 10.328L2.80664 10.15ZM2.80664 10.15L4.12864 10.328C4.15997 10.0947 4.12898 9.85726 4.03882 9.63982C3.94866 9.42237 3.80254 9.23267 3.61531 9.09L2.80664 10.15ZM2.17331 10.0867C2.45864 10.1153 2.63331 10.1333 2.75664 10.1553C2.88664 10.1787 2.86197 10.192 2.80664 10.15L3.61531 9.09C3.40997 8.93333 3.17397 8.876 2.99264 8.84333C2.80531 8.81 2.56931 8.78667 2.30597 8.76L2.17331 10.0867ZM1.38797 9.91467C1.53064 9.988 1.67064 10.0213 1.79064 10.0413C1.90397 10.06 2.03797 10.074 2.17397 10.0873L2.30597 8.76C2.20723 8.75175 2.10941 8.74063 2.01131 8.72667C1.95797 8.71733 1.96931 8.714 1.99931 8.72933L1.38797 9.91467ZM0.759973 9.22C0.87846 9.52023 1.10183 9.76729 1.38864 9.91533L1.99997 8.73L0.759973 9.22ZM0.66664 8.42133C0.66664 8.55733 0.66664 8.69267 0.673973 8.80733C0.681973 8.92867 0.70064 9.07133 0.76064 9.22067L1.99997 8.72933C2.01197 8.76067 2.00797 8.77133 2.00464 8.718C2.00024 8.61918 1.99869 8.52025 1.99997 8.42133H0.66664ZM0.66664 7.57867V8.42133H1.99997V7.57867H0.66664ZM0.759973 6.77933C0.709753 6.91173 0.68073 7.05122 0.673973 7.19267C0.665973 7.30733 0.66664 7.44267 0.66664 7.57933H1.99997C1.99997 7.42467 1.99997 7.34133 2.00464 7.28133C2.00797 7.228 2.01197 7.23867 1.99997 7.27L0.759973 6.77933ZM1.38864 6.08533C1.10207 6.23305 0.878732 6.4796 0.759973 6.77933L1.99997 7.27L1.38864 6.08533ZM2.17464 5.912C2.03864 5.926 1.90464 5.93867 1.79131 5.95867C1.67131 5.97867 1.53131 6.012 1.38864 6.08533L1.99997 7.27C1.96997 7.28533 1.95931 7.282 2.01197 7.27333C2.11007 7.25913 2.20855 7.24779 2.30731 7.23933L2.17464 5.912ZM2.80797 5.84933C2.86331 5.80733 2.88797 5.82067 2.75731 5.844C2.63397 5.866 2.45931 5.884 2.17464 5.91267L2.30731 7.23933C2.56931 7.21267 2.80597 7.19 2.99397 7.156C3.17464 7.12333 3.41131 7.066 3.61664 6.90933L2.80797 5.84933ZM2.80797 5.84933L3.61664 6.90933C3.80375 6.76658 3.94974 6.57685 4.03979 6.35941C4.12983 6.14197 4.16072 5.90457 4.12931 5.67133L2.80797 5.84933ZM2.40464 5.35667C2.58597 5.578 2.69664 5.714 2.76864 5.81733C2.84397 5.926 2.81731 5.918 2.80797 5.84933L4.12931 5.67133C4.09464 5.41533 3.96864 5.208 3.86331 5.05667C3.75464 4.9 3.60331 4.71667 3.43664 4.51267L2.40464 5.35667ZM1.97131 4.67867C2.01997 4.832 2.09531 4.954 2.16597 5.05333C2.23264 5.14667 2.31864 5.25133 2.40464 5.35667L3.43664 4.51267C3.37285 4.43668 3.31127 4.35954 3.25197 4.28C3.22064 4.23667 3.23131 4.242 3.24131 4.27333L1.97131 4.67867ZM2.01797 3.74333C1.88984 4.03921 1.87326 4.3715 1.97131 4.67867L3.24131 4.27333L2.01797 3.74333ZM2.51664 3.112C2.41997 3.20867 2.32464 3.30333 2.24864 3.39C2.15366 3.49493 2.07582 3.61417 2.01797 3.74333L3.24131 4.27333C3.22797 4.304 3.21731 4.30867 3.25264 4.268C3.29264 4.22267 3.35064 4.164 3.45931 4.05467L2.51664 3.112ZM3.11264 2.51667L2.51664 3.112L3.45931 4.05467L4.05597 3.45933L3.11264 2.51667ZM3.74331 2.01733C3.61409 2.07538 3.49485 2.15345 3.38997 2.24867C3.2948 2.33513 3.20231 2.4245 3.11264 2.51667L4.05597 3.45933C4.16464 3.35 4.22331 3.292 4.26864 3.25267C4.30864 3.21667 4.30397 3.22733 4.27331 3.24067L3.74331 2.01733ZM4.67931 1.97067C4.37194 1.87245 4.03938 1.88903 3.74331 2.01733L4.27331 3.24067L4.67931 1.97067ZM5.35597 2.404C5.25064 2.318 5.14731 2.23267 5.05331 2.166C4.93968 2.08164 4.81346 2.01572 4.67931 1.97067L4.27331 3.24067C4.24197 3.23067 4.23597 3.22067 4.27997 3.25133C4.32864 3.28667 4.39331 3.33867 4.51264 3.43667L5.35597 2.404ZM5.84931 2.80733C5.91797 2.81667 5.92597 2.84333 5.81731 2.768C5.65993 2.6521 5.50651 2.53092 5.35731 2.40467L4.51264 3.43667C4.71664 3.60333 4.89931 3.754 5.05597 3.86333C5.20664 3.968 5.41464 4.094 5.67064 4.12867L5.84931 2.80733ZM5.84931 2.80733L5.67131 4.12867C5.90461 4.16 6.14205 4.12901 6.35949 4.03885C6.57693 3.94869 6.76663 3.80256 6.90931 3.61533L5.84931 2.80733ZM5.91264 2.174C5.88397 2.45933 5.86597 2.634 5.84397 2.75733C5.82064 2.88733 5.80731 2.86267 5.84931 2.80733L6.90931 3.61533C7.06597 3.41 7.12331 3.174 7.15597 2.99333C7.18931 2.806 7.21331 2.56933 7.23931 2.30667L5.91264 2.174ZM6.08464 1.38867C6.02151 1.5154 5.97877 1.65129 5.95797 1.79133C5.93931 1.90467 5.92597 2.03867 5.91264 2.17467L7.23931 2.30667C7.248 2.20796 7.25912 2.11016 7.27264 2.012C7.28197 1.95867 7.28531 1.97067 7.26997 2L6.08464 1.38867ZM6.77997 0.76C6.47974 0.878487 6.23269 1.10186 6.08464 1.38867L7.26997 2L6.77997 0.76ZM7.57864 0.666666C7.44264 0.666666 7.30731 0.666666 7.19264 0.674C7.0512 0.680757 6.91171 0.70978 6.77931 0.76L7.27064 2C7.23931 2.012 7.22864 2.008 7.28197 2.00467C7.34197 2.00067 7.42531 2 7.57931 2L7.57864 0.666666ZM8.42131 0.666666H7.57864V2H8.42131V0.666666ZM9.21997 0.76C9.08757 0.70978 8.94808 0.680757 8.80664 0.674C8.69331 0.666 8.55797 0.666666 8.42197 0.666666V2C8.57597 2 8.65931 2 8.71931 2.00467C8.77264 2.008 8.76131 2.012 8.72997 2L9.21997 0.76ZM9.91531 1.38867C9.76726 1.10186 9.5202 0.878487 9.21997 0.76L8.72997 2L9.91531 1.38867ZM9.99997 8C9.99997 8.53043 9.78926 9.03914 9.41419 9.41421C9.03911 9.78929 8.53041 10 7.99997 10V11.3333C8.88403 11.3333 9.73187 10.9821 10.357 10.357C10.9821 9.7319 11.3333 8.88405 11.3333 8H9.99997ZM7.99997 6C8.53041 6 9.03911 6.21071 9.41419 6.58579C9.78926 6.96086 9.99997 7.46957 9.99997 8H11.3333C11.3333 7.11594 10.9821 6.2681 10.357 5.64298C9.73187 5.01786 8.88403 4.66667 7.99997 4.66667V6ZM5.99997 8C5.99997 7.46957 6.21069 6.96086 6.58576 6.58579C6.96083 6.21071 7.46954 6 7.99997 6V4.66667C7.11592 4.66667 6.26807 5.01786 5.64295 5.64298C5.01783 6.2681 4.66664 7.11594 4.66664 8H5.99997ZM7.99997 10C7.46954 10 6.96083 9.78929 6.58576 9.41421C6.21069 9.03914 5.99997 8.53043 5.99997 8H4.66664C4.66664 8.88405 5.01783 9.7319 5.64295 10.357C6.26807 10.9821 7.11592 11.3333 7.99997 11.3333V10Z" fill="white"/>
</g>
<defs>
<clipPath id="clip0_418_138">
<rect width="16" height="16" fill="white"/>
</clipPath>
</defs>
</svg>
