<svg width="26" height="22" viewBox="0 0 26 22" fill="none" xmlns="http://www.w3.org/2000/svg">
<path d="M7.78842 15.3896C6.44498 16.4448 4.903 17.219 3.25424 17.6661C3.07263 17.732 2.91573 17.8522 2.80485 18.0104C2.69396 18.1686 2.63448 18.3571 2.63448 18.5503C2.63448 18.7435 2.69396 18.932 2.80485 19.0903C2.91573 19.2485 3.07263 19.3687 3.25424 19.4346C16.2735 24.7778 24.5517 16.5184 23.2912 7.356L25.3983 2.99114H22.9525C19.9047 -0.752848 11.8146 -0.564707 13.1504 7.41244C13.1504 7.41244 8.82319 8.18381 3.29187 2.74656C3.16392 2.62024 3.00244 2.53323 2.82657 2.49584C2.6507 2.45845 2.4678 2.47225 2.29952 2.5356C2.13125 2.59895 1.98466 2.7092 1.87711 2.85329C1.76955 2.99738 1.70555 3.16927 1.69267 3.34861C1.10781 5.75276 1.4005 8.28673 2.51805 10.4942C3.6356 12.7017 5.50457 14.4377 7.78842 15.3896Z" stroke="white" stroke-linecap="round" stroke-linejoin="round"/>
</svg>
