<svg width="16" height="17" viewBox="0 0 16 17" fill="none" xmlns="http://www.w3.org/2000/svg">
<path fill-rule="evenodd" clip-rule="evenodd" d="M7.99998 9.50002C8.70722 9.50002 9.3855 9.21907 9.8856 8.71897C10.3857 8.21887 10.6666 7.5406 10.6666 6.83335C10.6666 6.12611 10.3857 5.44783 9.8856 4.94774C9.3855 4.44764 8.70722 4.16669 7.99998 4.16669C7.29274 4.16669 6.61446 4.44764 6.11436 4.94774C5.61426 5.44783 5.33331 6.12611 5.33331 6.83335C5.33331 7.5406 5.61426 8.21887 6.11436 8.71897C6.61446 9.21907 7.29274 9.50002 7.99998 9.50002ZM7.99998 8.83335C8.26262 8.83335 8.5227 8.78162 8.76535 8.68111C9.008 8.5806 9.22848 8.43328 9.41419 8.24757C9.59991 8.06185 9.74723 7.84137 9.84774 7.59872C9.94825 7.35607 9.99998 7.096 9.99998 6.83335C9.99998 6.57071 9.94825 6.31064 9.84774 6.06799C9.74723 5.82534 9.59991 5.60486 9.41419 5.41914C9.22848 5.23342 9.008 5.0861 8.76535 4.98559C8.5227 4.88509 8.26262 4.83335 7.99998 4.83335C7.46955 4.83335 6.96084 5.04407 6.58577 5.41914C6.21069 5.79421 5.99998 6.30292 5.99998 6.83335C5.99998 7.36379 6.21069 7.87249 6.58577 8.24757C6.96084 8.62264 7.46955 8.83335 7.99998 8.83335Z" fill="white"/>
<path fill-rule="evenodd" clip-rule="evenodd" d="M14.6666 8.50001C14.6666 12.182 11.682 15.1667 7.99998 15.1667C4.31798 15.1667 1.33331 12.182 1.33331 8.50001C1.33331 4.81801 4.31798 1.83334 7.99998 1.83334C11.682 1.83334 14.6666 4.81801 14.6666 8.50001ZM11.21 13.57C10.2503 14.1792 9.13668 14.5018 7.99998 14.5C6.83614 14.5018 5.69713 14.1635 4.72298 13.5267C4.64298 13.4267 4.56165 13.3233 4.47965 13.2167C4.38437 13.0917 4.33294 12.9388 4.33331 12.7817C4.33331 12.4227 4.59131 12.1217 4.93631 12.0713C7.21798 11.738 8.78898 11.7667 11.0736 12.083C11.2391 12.107 11.3903 12.19 11.4993 12.3168C11.6083 12.4436 11.6677 12.6055 11.6666 12.7727C11.6666 12.9327 11.6116 13.088 11.5123 13.2093C11.41 13.334 11.309 13.4543 11.21 13.57ZM12.3283 12.6553C12.275 12.0313 11.8013 11.5107 11.165 11.4227C8.82631 11.099 7.19165 11.068 4.83998 11.4117C4.19998 11.505 3.72831 12.0303 3.67231 12.656C2.59742 11.5397 1.99786 10.0497 1.99998 8.50001C1.99998 5.18634 4.68631 2.50001 7.99998 2.50001C11.3136 2.50001 14 5.18634 14 8.50001C14.0021 10.0494 13.4028 11.5391 12.3283 12.6553Z" fill="white"/>
</svg>
