<svg width="25" height="24" viewBox="0 0 25 24" fill="none" xmlns="http://www.w3.org/2000/svg">
<path d="M12.5 4C11.4391 4 10.4217 4.42143 9.67157 5.17157C8.92143 5.92172 8.5 6.93913 8.5 8C8.5 9.06087 8.92143 10.0783 9.67157 10.8284C10.4217 11.5786 11.4391 12 12.5 12C13.5609 12 14.5783 11.5786 15.3284 10.8284C16.0786 10.0783 16.5 9.06087 16.5 8C16.5 6.93913 16.0786 5.92172 15.3284 5.17157C14.5783 4.42143 13.5609 4 12.5 4ZM6.5 8C6.5 6.4087 7.13214 4.88258 8.25736 3.75736C9.38258 2.63214 10.9087 2 12.5 2C14.0913 2 15.6174 2.63214 16.7426 3.75736C17.8679 4.88258 18.5 6.4087 18.5 8C18.5 9.5913 17.8679 11.1174 16.7426 12.2426C15.6174 13.3679 14.0913 14 12.5 14C10.9087 14 9.38258 13.3679 8.25736 12.2426C7.13214 11.1174 6.5 9.5913 6.5 8ZM8.5 18C7.70435 18 6.94129 18.3161 6.37868 18.8787C5.81607 19.4413 5.5 20.2044 5.5 21C5.5 21.2652 5.39464 21.5196 5.20711 21.7071C5.01957 21.8946 4.76522 22 4.5 22C4.23478 22 3.98043 21.8946 3.79289 21.7071C3.60536 21.5196 3.5 21.2652 3.5 21C3.5 19.6739 4.02678 18.4021 4.96447 17.4645C5.90215 16.5268 7.17392 16 8.5 16H16.5C17.8261 16 19.0979 16.5268 20.0355 17.4645C20.9732 18.4021 21.5 19.6739 21.5 21C21.5 21.2652 21.3946 21.5196 21.2071 21.7071C21.0196 21.8946 20.7652 22 20.5 22C20.2348 22 19.9804 21.8946 19.7929 21.7071C19.6054 21.5196 19.5 21.2652 19.5 21C19.5 20.2044 19.1839 19.4413 18.6213 18.8787C18.0587 18.3161 17.2956 18 16.5 18H8.5Z" fill="white"/>
</svg>
